<?xml version="1.0" encoding="iso-8859-1"?>
<!-- Generator: Adobe Illustrator 19.0.0, SVG Export Plug-In . SVG Version: 6.00 Build 0)  -->
<svg version="1.1" id="Capa_1" xmlns="http://www.w3.org/2000/svg" xmlns:xlink="http://www.w3.org/1999/xlink" x="0px" y="0px"
	 viewBox="0 0 409.856 409.856" style="enable-background:new 0 0 409.856 409.856;" xml:space="preserve">
<g>
	<g>
		<path d="M379.776,306.432l-57.344-102.4l57.344-102.912c1.024-1.536,1.024-3.584,0-5.12c-1.024-1.536-2.56-2.56-4.608-2.56H260.48
			l-51.2-91.136c-2.048-3.072-7.168-3.072-8.704,0l-51.2,91.136H34.688c-2.048,0-3.584,1.024-4.608,2.56
			c-1.024,1.536-1.024,3.584,0,5.12l57.856,102.912l-57.344,102.4c-1.024,1.536-1.024,3.584,0,5.12
			c1.024,1.536,2.56,2.56,4.608,2.56h113.664l51.712,93.184c1.024,1.536,2.56,2.56,4.608,2.56c2.048,0,3.584-1.024,4.608-2.56
			l51.712-93.184h113.664c2.048,0,3.584-1.024,4.608-2.56S380.8,307.968,379.776,306.432z M366.464,103.68l-50.176,89.6
			l-50.176-89.6H366.464z M205.184,15.104l43.52,78.336h-87.552L205.184,15.104z M43.392,103.68h100.352l-50.176,89.6L43.392,103.68
			z M43.904,303.872l49.664-89.088l49.664,89.088H43.904z M205.184,393.984L160.64,313.6h89.088L205.184,393.984z M255.36,303.872
			H155.008L99.2,204.032l56.32-100.352h98.816l56.32,100.352L255.36,303.872z M267.136,303.872l49.664-89.088l49.664,89.088H267.136
			z"/>
	</g>
</g>
</svg>
